# xmcd
#
# Track frame offsets: 
#        150
#        16100
#        35720
#        53043
#        72312
#        89224
#        110321
#        134477
#        155750
#        172274
#        191562
#        212998
#
# Disc length: 3081 seconds
#
# Revision: 0
# Processed by: cddbd v1.5.2PL0 Copyright (c) Steve Scherf et al.
# Submitted via: ExactAudioCopy v0.90b4
#
DISCID=b60c070c
DTITLE=Joe Veras - La Travesia
DYEAR=2006
DGENRE=Latin
TTITLE0=En El Amor
TTITLE1=Chiquilla Chiquita
TTITLE2=Te Quiero De Veras
TTITLE3=Doctora
TTITLE4=Mala Costumbre
TTITLE5=Antes De Ser Infiel
TTITLE6=Reconciliación
TTITLE7=La Travesía
TTITLE8=Seré
TTITLE9=Tu Belleza Interior
TTITLE10=Mujercita Buena
TTITLE11=Que Es Lo Que Me Gusta (Reggaebachata)
EXTD=
EXTT0=
EXTT1=
EXTT2=
EXTT3=
EXTT4=
EXTT5=
EXTT6=
EXTT7=
EXTT8=
EXTT9=
EXTT10=
EXTT11=
PLAYORDER=
